<?xml version="1.0" encoding="utf-8"?>
<!-- Generator: Adobe Illustrator 19.0.1, SVG Export Plug-In . SVG Version: 6.00 Build 0)  -->
<svg version="1.1" id="Réteg_1" xmlns="http://www.w3.org/2000/svg" xmlns:xlink="http://www.w3.org/1999/xlink" x="0px" y="0px"
	 viewBox="0 0 30 30" style="enable-background:new 0 0 30 30;" xml:space="preserve">
<style type="text/css">
	.st0{opacity:0.4;}
	.st1{fill:#34722F;}
</style>
<g>
	<g class="st0">
		<path d="M16.8,26.5l9-9c0.7-0.7,0.7-1.8,0-2.5c-0.7-0.7-1.8-0.7-2.5,0l-7.8,7.8l-7.8-7.8c-0.7-0.7-1.8-0.7-2.5,0
			c-0.3,0.3-0.5,0.8-0.5,1.2c0,0.4,0.2,0.9,0.5,1.2l9,9C15,27.2,16.1,27.2,16.8,26.5z"/>
	</g>
	<path class="st1" d="M16.8,26.5l9-9c0.7-0.7,0.7-1.8,0-2.5c-0.7-0.7-1.8-0.7-2.5,0l-7.8,7.8l-7.8-7.8c-0.7-0.7-1.8-0.7-2.5,0
		c-0.3,0.3-0.5,0.8-0.5,1.2c0,0.4,0.2,0.9,0.5,1.2l9,9C15,27.2,16.1,27.2,16.8,26.5z"/>
</g>
<g>
	<g class="st0">
		<path d="M16.8,17.5l9-9c0.7-0.7,0.7-1.8,0-2.5c-0.7-0.7-1.8-0.7-2.5,0l-7.8,7.8L7.8,6C7.1,5.4,6,5.4,5.3,6C5,6.4,4.8,6.8,4.8,7.3
			c0,0.4,0.2,0.9,0.5,1.2l9,9C15,18.2,16.1,18.2,16.8,17.5z"/>
	</g>
	<path class="st1" d="M16.8,17.5l9-9c0.7-0.7,0.7-1.8,0-2.5c-0.7-0.7-1.8-0.7-2.5,0l-7.8,7.8L7.8,6C7.1,5.4,6,5.4,5.3,6
		C5,6.4,4.8,6.8,4.8,7.3c0,0.4,0.2,0.9,0.5,1.2l9,9C15,18.2,16.1,18.2,16.8,17.5z"/>
</g>
</svg>
